<?xml version="1.0" standalone="no"?>
<!DOCTYPE svg PUBLIC "-//W3C//DTD SVG 20010904//EN"
 "http://www.w3.org/TR/2001/REC-SVG-20010904/DTD/svg10.dtd">
<svg version="1.0" xmlns="http://www.w3.org/2000/svg"
 width="354.000000pt" height="354.000000pt" viewBox="0 0 354.000000 354.000000"
 preserveAspectRatio="xMidYMid meet">
<metadata>
Created by potrace 1.11, written by Peter Selinger 2001-2013
</metadata>
<g transform="translate(0.000000,354.000000) scale(0.100000,-0.100000)"
fill="#000000" stroke="none">
<path d="M1070 3275 l0 -115 -355 0 -355 0 0 -225 0 -225 350 0 350 0 0 -115
0 -115 -350 0 -350 0 0 -237 0 -238 235 3 235 3 0 -231 0 -231 -235 3 -235 3
0 -227 0 -228 585 0 585 0 0 -470 0 -470 225 0 225 0 0 465 0 465 580 0 580 0
0 225 0 224 -227 -2 -228 -2 0 235 0 235 228 0 227 0 0 233 0 232 -334 0
c-184 0 -341 3 -350 6 -22 9 -23 208 -2 230 12 12 73 14 350 14 l336 0 0 226
0 226 -345 -7 -345 -7 0 111 0 111 -230 0 -230 0 0 -115 0 -115 -240 0 -240 0
0 120 0 120 -220 0 -220 0 0 -115z m930 -695 l0 -130 -240 0 -240 0 0 130 0
130 240 0 240 0 0 -130z m210 -920 l0 -120 -115 0 -115 0 0 113 c0 63 3 117 7
120 3 4 55 7 115 7 l108 0 0 -120z m-690 0 l0 -111 -112 3 -113 3 -3 108 -3
107 116 0 115 0 0 -110z"/>
</g>
</svg>
